%TF.GenerationSoftware,KiCad,Pcbnew,(5.1.10)-1*%
%TF.CreationDate,2021-07-29T21:44:00-04:00*%
%TF.ProjectId,Test,54657374-2e6b-4696-9361-645f70636258,v01*%
%TF.SameCoordinates,Original*%
%TF.FileFunction,Copper,L1,Top*%
%TF.FilePolarity,Positive*%
%FSLAX46Y46*%
G04 Gerber Fmt 4.6, Leading zero omitted, Abs format (unit mm)*
G04 Created by KiCad (PCBNEW (5.1.10)-1) date 2021-07-29 21:44:00*
%MOMM*%
%LPD*%
G01*
G04 APERTURE LIST*
%TA.AperFunction,ComponentPad*%
%ADD10C,1.524000*%
%TD*%
%TA.AperFunction,ComponentPad*%
%ADD11R,1.350000X1.350000*%
%TD*%
%TA.AperFunction,ComponentPad*%
%ADD12O,1.350000X1.350000*%
%TD*%
%TA.AperFunction,ViaPad*%
%ADD13C,1.600000*%
%TD*%
%TA.AperFunction,Conductor*%
%ADD14C,0.500000*%
%TD*%
%TA.AperFunction,Conductor*%
%ADD15C,0.250000*%
%TD*%
G04 APERTURE END LIST*
D10*
%TO.P,R8,1*%
%TO.N,Net-(J1-Pad1)*%
X152021540Y-91089480D03*
%TO.P,R8,2*%
%TO.N,Net-(J1-Pad2)*%
X148973540Y-91089480D03*
%TD*%
%TO.P,R6,2*%
%TO.N,Net-(J1-Pad4)*%
X165272720Y-107309920D03*
%TO.P,R6,1*%
%TO.N,Net-(J1-Pad1)*%
X165272720Y-104261920D03*
%TD*%
%TO.P,R5,2*%
%TO.N,Net-(J1-Pad5)*%
X152019000Y-120543320D03*
%TO.P,R5,1*%
%TO.N,Net-(J1-Pad1)*%
X148971000Y-120543320D03*
%TD*%
%TO.P,R7,1*%
%TO.N,Net-(J1-Pad1)*%
X135745220Y-104208580D03*
%TO.P,R7,2*%
%TO.N,Net-(J1-Pad3)*%
X135745220Y-107256580D03*
%TD*%
D11*
%TO.P,J1,1*%
%TO.N,Net-(J1-Pad1)*%
X145134580Y-126121160D03*
D12*
%TO.P,J1,2*%
%TO.N,Net-(J1-Pad2)*%
X147134580Y-126121160D03*
%TO.P,J1,3*%
%TO.N,Net-(J1-Pad3)*%
X149134580Y-126121160D03*
%TO.P,J1,4*%
%TO.N,Net-(J1-Pad4)*%
X151134580Y-126121160D03*
%TO.P,J1,5*%
%TO.N,Net-(J1-Pad5)*%
X153134580Y-126121160D03*
%TO.P,J1,6*%
%TO.N,Net-(J1-Pad6)*%
X155134580Y-126121160D03*
%TD*%
%TO.P,R1,1*%
%TO.N,Net-(J1-Pad2)*%
%TA.AperFunction,SMDPad,CuDef*%
G36*
G01*
X146805660Y-115758420D02*
X146330660Y-115758420D01*
G75*
G02*
X146093160Y-115520920I0J237500D01*
G01*
X146093160Y-115020920D01*
G75*
G02*
X146330660Y-114783420I237500J0D01*
G01*
X146805660Y-114783420D01*
G75*
G02*
X147043160Y-115020920I0J-237500D01*
G01*
X147043160Y-115520920D01*
G75*
G02*
X146805660Y-115758420I-237500J0D01*
G01*
G37*
%TD.AperFunction*%
%TO.P,R1,2*%
%TO.N,Net-(J1-Pad6)*%
%TA.AperFunction,SMDPad,CuDef*%
G36*
G01*
X146805660Y-113933420D02*
X146330660Y-113933420D01*
G75*
G02*
X146093160Y-113695920I0J237500D01*
G01*
X146093160Y-113195920D01*
G75*
G02*
X146330660Y-112958420I237500J0D01*
G01*
X146805660Y-112958420D01*
G75*
G02*
X147043160Y-113195920I0J-237500D01*
G01*
X147043160Y-113695920D01*
G75*
G02*
X146805660Y-113933420I-237500J0D01*
G01*
G37*
%TD.AperFunction*%
%TD*%
%TO.P,R2,2*%
%TO.N,Net-(J1-Pad6)*%
%TA.AperFunction,SMDPad,CuDef*%
G36*
G01*
X149411700Y-113943580D02*
X148936700Y-113943580D01*
G75*
G02*
X148699200Y-113706080I0J237500D01*
G01*
X148699200Y-113206080D01*
G75*
G02*
X148936700Y-112968580I237500J0D01*
G01*
X149411700Y-112968580D01*
G75*
G02*
X149649200Y-113206080I0J-237500D01*
G01*
X149649200Y-113706080D01*
G75*
G02*
X149411700Y-113943580I-237500J0D01*
G01*
G37*
%TD.AperFunction*%
%TO.P,R2,1*%
%TO.N,Net-(J1-Pad3)*%
%TA.AperFunction,SMDPad,CuDef*%
G36*
G01*
X149411700Y-115768580D02*
X148936700Y-115768580D01*
G75*
G02*
X148699200Y-115531080I0J237500D01*
G01*
X148699200Y-115031080D01*
G75*
G02*
X148936700Y-114793580I237500J0D01*
G01*
X149411700Y-114793580D01*
G75*
G02*
X149649200Y-115031080I0J-237500D01*
G01*
X149649200Y-115531080D01*
G75*
G02*
X149411700Y-115768580I-237500J0D01*
G01*
G37*
%TD.AperFunction*%
%TD*%
%TO.P,R3,1*%
%TO.N,Net-(J1-Pad4)*%
%TA.AperFunction,SMDPad,CuDef*%
G36*
G01*
X152012660Y-115758420D02*
X151537660Y-115758420D01*
G75*
G02*
X151300160Y-115520920I0J237500D01*
G01*
X151300160Y-115020920D01*
G75*
G02*
X151537660Y-114783420I237500J0D01*
G01*
X152012660Y-114783420D01*
G75*
G02*
X152250160Y-115020920I0J-237500D01*
G01*
X152250160Y-115520920D01*
G75*
G02*
X152012660Y-115758420I-237500J0D01*
G01*
G37*
%TD.AperFunction*%
%TO.P,R3,2*%
%TO.N,Net-(J1-Pad6)*%
%TA.AperFunction,SMDPad,CuDef*%
G36*
G01*
X152012660Y-113933420D02*
X151537660Y-113933420D01*
G75*
G02*
X151300160Y-113695920I0J237500D01*
G01*
X151300160Y-113195920D01*
G75*
G02*
X151537660Y-112958420I237500J0D01*
G01*
X152012660Y-112958420D01*
G75*
G02*
X152250160Y-113195920I0J-237500D01*
G01*
X152250160Y-113695920D01*
G75*
G02*
X152012660Y-113933420I-237500J0D01*
G01*
G37*
%TD.AperFunction*%
%TD*%
%TO.P,R4,2*%
%TO.N,Net-(J1-Pad6)*%
%TA.AperFunction,SMDPad,CuDef*%
G36*
G01*
X154628860Y-113918180D02*
X154153860Y-113918180D01*
G75*
G02*
X153916360Y-113680680I0J237500D01*
G01*
X153916360Y-113180680D01*
G75*
G02*
X154153860Y-112943180I237500J0D01*
G01*
X154628860Y-112943180D01*
G75*
G02*
X154866360Y-113180680I0J-237500D01*
G01*
X154866360Y-113680680D01*
G75*
G02*
X154628860Y-113918180I-237500J0D01*
G01*
G37*
%TD.AperFunction*%
%TO.P,R4,1*%
%TO.N,Net-(J1-Pad5)*%
%TA.AperFunction,SMDPad,CuDef*%
G36*
G01*
X154628860Y-115743180D02*
X154153860Y-115743180D01*
G75*
G02*
X153916360Y-115505680I0J237500D01*
G01*
X153916360Y-115005680D01*
G75*
G02*
X154153860Y-114768180I237500J0D01*
G01*
X154628860Y-114768180D01*
G75*
G02*
X154866360Y-115005680I0J-237500D01*
G01*
X154866360Y-115505680D01*
G75*
G02*
X154628860Y-115743180I-237500J0D01*
G01*
G37*
%TD.AperFunction*%
%TD*%
D13*
%TO.N,Net-(J1-Pad6)*%
X157065980Y-116918740D03*
%TD*%
D14*
%TO.N,Net-(J1-Pad1)*%
X145134580Y-124379740D02*
X148971000Y-120543320D01*
X145134580Y-126121160D02*
X145134580Y-124379740D01*
X134533219Y-105420581D02*
X135745220Y-104208580D01*
X134533219Y-107838341D02*
X134533219Y-105420581D01*
X147238198Y-120543320D02*
X134533219Y-107838341D01*
X148971000Y-120543320D02*
X147238198Y-120543320D01*
X135745220Y-104208580D02*
X147076160Y-92877640D01*
X150233380Y-92877640D02*
X152021540Y-91089480D01*
X147076160Y-92877640D02*
X150233380Y-92877640D01*
X152100280Y-91089480D02*
X152021540Y-91089480D01*
X165193980Y-104261920D02*
X165272720Y-104261920D01*
X152021540Y-91089480D02*
X165193980Y-104261920D01*
D15*
%TO.N,Net-(J1-Pad2)*%
X145768150Y-114470910D02*
X146568160Y-115270920D01*
X146112900Y-112618170D02*
X145768150Y-112962920D01*
X145768150Y-112962920D02*
X145768150Y-114470910D01*
X154861860Y-112618170D02*
X146112900Y-112618170D01*
X155614581Y-127121161D02*
X158190981Y-124544761D01*
X158104045Y-115860355D02*
X154861860Y-112618170D01*
X158190981Y-115947291D02*
X158104045Y-115860355D01*
X158190981Y-124544761D02*
X158190981Y-117200461D01*
X158190981Y-117200461D02*
X158190981Y-115947291D01*
X152622041Y-90002479D02*
X166359721Y-103740159D01*
X150060541Y-90002479D02*
X152622041Y-90002479D01*
X148973540Y-91089480D02*
X150060541Y-90002479D01*
X147134580Y-126121160D02*
X148134581Y-127121161D01*
X148134581Y-127121161D02*
X155614581Y-127121161D01*
X166359721Y-103740159D02*
X166359721Y-110190399D01*
X159349659Y-117200461D02*
X158190981Y-117200461D01*
X166359721Y-110190399D02*
X159349659Y-117200461D01*
%TO.N,Net-(J1-Pad3)*%
X150058001Y-116164881D02*
X149174200Y-115281080D01*
X150058001Y-125197739D02*
X150058001Y-116164881D01*
X149134580Y-126121160D02*
X150058001Y-125197739D01*
X145022079Y-116533439D02*
X135745220Y-107256580D01*
X147921841Y-116533439D02*
X145022079Y-116533439D01*
X149174200Y-115281080D02*
X147921841Y-116533439D01*
%TO.N,Net-(J1-Pad4)*%
X150931999Y-116114081D02*
X151775160Y-115270920D01*
X150931999Y-125918579D02*
X150931999Y-116114081D01*
X151134580Y-126121160D02*
X150931999Y-125918579D01*
X145318141Y-112776519D02*
X150784740Y-107309920D01*
X145318140Y-115303910D02*
X145318141Y-112776519D01*
X146097660Y-116083430D02*
X145318140Y-115303910D01*
X147038660Y-116083430D02*
X146097660Y-116083430D01*
X147595250Y-115526840D02*
X147038660Y-116083430D01*
X147595250Y-114268590D02*
X147595250Y-115526840D01*
X150784740Y-107309920D02*
X165272720Y-107309920D01*
X150772830Y-114268590D02*
X147595250Y-114268590D01*
X151775160Y-115270920D02*
X150772830Y-114268590D01*
%TO.N,Net-(J1-Pad5)*%
X153134580Y-121658900D02*
X152019000Y-120543320D01*
X153134580Y-126121160D02*
X153134580Y-121658900D01*
X154391360Y-118170960D02*
X152019000Y-120543320D01*
X154391360Y-115255680D02*
X154391360Y-118170960D01*
D14*
%TO.N,Net-(J1-Pad6)*%
X149164040Y-113445920D02*
X149174200Y-113456080D01*
X146568160Y-113445920D02*
X149164040Y-113445920D01*
X151765000Y-113456080D02*
X151775160Y-113445920D01*
X149174200Y-113456080D02*
X151765000Y-113456080D01*
X154376120Y-113445920D02*
X154391360Y-113430680D01*
X151775160Y-113445920D02*
X154376120Y-113445920D01*
X157065980Y-116105300D02*
X157065980Y-116918740D01*
X154391360Y-113430680D02*
X157065980Y-116105300D01*
%TD*%
M02*
